<svg id="Layer_1" data-name="Layer 1" xmlns="http://www.w3.org/2000/svg" viewBox="0 0 133 51"><defs><style>.cls-1{fill:#e08f36;}.cls-2{fill:#af7c3e;}.cls-3{font-size:14px;font-family:Italianno-Regular, Italianno;}.cls-4{fill:red;}.cls-5{fill:none;}</style></defs><title>Artboard 1 copy</title><line class="cls-1" x1="9.42" y1="21.15" x2="38.89" y2="6.38"/><path class="cls-1" d="M123.25,40.28c1.54-3.39,1.58-7.7,3.22-11.1L128,23,99,14,37,11,9,22,21.74,47l.4.79c3-2.58,8.05-1.37,11.88.78a5.48,5.48,0,0,1,1.61-.32,10.71,10.71,0,0,1,5.79,1.46c.34.19.67.41,1,.63a4.62,4.62,0,0,1,5-.09l.46.3c3.29-2.42,7.72-3,12.2-3.11A4.56,4.56,0,0,1,64.64,44a5.19,5.19,0,0,1,1,.1,18.92,18.92,0,0,1,3.17-1.3,23.45,23.45,0,0,1,8.49-4.16c5.34-1.34,10.26.19,15.57.62a5,5,0,0,1,3.24,1.45,7.32,7.32,0,0,1,3.61,1.77.48.48,0,0,1,.11.09l.16.16.15.16.06.08a2.67,2.67,0,0,1,.31.36,5.16,5.16,0,0,1,3.17-1.17h2.64a4.76,4.76,0,0,1,2.82.92,4.88,4.88,0,0,1,3.78-.48,9,9,0,0,0,1.11.28c.6.05,1.19.07,1.78.07l.31,0a5.14,5.14,0,0,1,3.38-1.34H120a4.94,4.94,0,0,1,2.68.84A6.52,6.52,0,0,1,123.25,40.28Z"/><line class="cls-1" x1="41.62" y1="13.58" x2="90.59" y2="8.71"/><path class="cls-2" d="M118,23c-.73-.42-1.47-1-3.06-1.84A37.11,37.11,0,0,0,110,19c-6.78-2.45-12.55-1.85-21-2-7.9-.14-9.88.51-20,1-24.75,1.21-25.45-2.07-34,1-9.22,3.31-12.82,8.69-17.19,10a6.33,6.33,0,0,1-1.94.28A7.47,7.47,0,0,1,14,29C8.22,27.5,3.46,20.07,5,15c1.36-4.47,7.39-5.67,15-8,9.61-2.95,12,0,25-3C51.91,2.38,54.15.86,60,1c5.08.12,5.37,1.32,12,2,8.67.88,9.38-1,17,0,7.35,1,6.84,2.82,13,3,4.66.13,7.3-.84,11,1,2.16,1.07,2.32,1.93,5,3,3.31,1.32,4.78.7,7,2h0a7.9,7.9,0,0,1,4,5,9.76,9.76,0,0,1-.49,5.28c-.21.55-.5,1.24-.5,1.24l-.41.93"/><text class="cls-3" transform="matrix(0.96, -0.59, 0.52, 0.85, 21.84, 20.94)">B</text><text class="cls-3" transform="translate(29.01 16.64) rotate(-17.32) scale(1.12 1)">u</text><text class="cls-3" transform="translate(34.64 14.97) rotate(-8.2) scale(1.12 1)">o</text><text class="cls-3" transform="translate(38.48 14.37) rotate(-0.57) scale(1.12 1)">n</text><text class="cls-3" transform="matrix(1.12, 0.07, -0.06, 1, 43.51, 14.38)">a</text><text class="cls-3" transform="matrix(1.12, 0.07, -0.07, 1, 48.1, 14.68)"> </text><text class="cls-3" transform="translate(50.77 14.91) rotate(2.61) scale(1.12 1)">S</text><text class="cls-3" transform="matrix(1.12, -0.06, 0.06, 1, 58.37, 15.16)">e</text><text class="cls-3" transform="translate(62.36 14.91) rotate(-4.45) scale(1.12 1)">r</text><text class="cls-3" transform="translate(66.6 14.57) rotate(-3.49) scale(1.12 1)">a</text><text class="cls-3" transform="translate(71.16 14.3) rotate(-2.68) scale(1.12 1)"> </text><text class="cls-3" transform="matrix(1.12, -0.03, 0.03, 1, 73.77, 14.16)">C</text><text class="cls-3" transform="translate(81.89 13.91) rotate(2.54) scale(1.12 1)">u</text><text class="cls-3" transform="translate(87.95 14.22) rotate(5.65) scale(1.12 1)">s</text><text class="cls-3" transform="matrix(1.11, 0.15, -0.13, 0.99, 91.5, 14.57)">i</text><text class="cls-3" transform="matrix(1.11, 0.17, -0.15, 0.99, 94.45, 14.96)">n</text><text class="cls-3" transform="translate(100 15.86) rotate(3.7) scale(1.12 1)">a</text><path class="cls-4" d="M123.25,40.28c1.52-3.35,1.58-7.6,3.17-11A21.32,21.32,0,0,0,123,29c-9.19,0-16.9,5.59-19.24,13.19h2.55a4.76,4.76,0,0,1,2.82.92,4.88,4.88,0,0,1,3.78-.48,9,9,0,0,0,1.11.28c.6.05,1.19.07,1.78.07l.31,0a5.14,5.14,0,0,1,3.38-1.34H120a4.86,4.86,0,0,1,2.68.84A6.52,6.52,0,0,1,123.25,40.28Z"/><path class="cls-4" d="M65.63,44.13a18.92,18.92,0,0,1,3.17-1.3c.69-.53,1.42-1,2.16-1.48C68.33,34.18,60.85,29,52,29c-11,0-20,8.06-20,18,0,.2,0,.39,0,.59a19.34,19.34,0,0,1,2,1,5.48,5.48,0,0,1,1.61-.32,10.71,10.71,0,0,1,5.79,1.46c.34.19.67.41,1,.63a4.62,4.62,0,0,1,5-.09l.46.3c3.29-2.42,7.72-3,12.2-3.11A4.56,4.56,0,0,1,64.64,44,5.19,5.19,0,0,1,65.63,44.13Z"/><path class="cls-5" d="M34,48.57a5.48,5.48,0,0,1,1.61-.32,9.71,9.71,0,0,1,3,.31l-6.23-3.74A15.92,15.92,0,0,0,19,43.43L0,50l20.75-.44C23.3,44.82,29.51,46,34,48.57Z"/><path class="cls-5" d="M47.38,50.25l.46.3a13.32,13.32,0,0,1,3-1.63l-10.57.22c.39.17.77.36,1.16.57s.67.41,1,.63A4.62,4.62,0,0,1,47.38,50.25Z"/></svg>